<mxfile host="app.diagrams.net" modified="2021-09-09T08:44:52.576Z" agent="5.0 (X11; Linux x86_64) AppleWebKit/537.36 (KHTML, like Gecko) Chrome/93.0.4577.58 Safari/537.36 Edg/93.0.961.33" etag="hMWgaqwaHNZPnS4w2A09" version="15.1.2" type="github">
  <diagram id="xnt2ngbTrPd6CSlb4gW7" name="Page-1">
    <mxGraphModel dx="1350" dy="774" grid="1" gridSize="10" guides="1" tooltips="1" connect="1" arrows="1" fold="1" page="1" pageScale="1" pageWidth="827" pageHeight="1169" math="0" shadow="0">
      <root>
        <mxCell id="0" />
        <mxCell id="1" parent="0" />
        <mxCell id="49G-2B_-iHoOF8f0MI3W-1" value="0x67" style="rounded=0;whiteSpace=wrap;html=1;fillColor=#f8cecc;strokeColor=#b85450;" vertex="1" parent="1">
          <mxGeometry x="520" y="720" width="240" height="40" as="geometry" />
        </mxCell>
        <mxCell id="49G-2B_-iHoOF8f0MI3W-2" value="0x27" style="rounded=0;whiteSpace=wrap;html=1;fillColor=#ffe6cc;strokeColor=#d79b00;" vertex="1" parent="1">
          <mxGeometry x="520" y="680" width="240" height="40" as="geometry" />
        </mxCell>
        <mxCell id="49G-2B_-iHoOF8f0MI3W-3" value="0xdb" style="rounded=0;whiteSpace=wrap;html=1;fillColor=#ffe6cc;strokeColor=#d79b00;" vertex="1" parent="1">
          <mxGeometry x="520" y="640" width="240" height="40" as="geometry" />
        </mxCell>
        <mxCell id="49G-2B_-iHoOF8f0MI3W-4" value="0xff" style="rounded=0;whiteSpace=wrap;html=1;fillColor=#ffe6cc;strokeColor=#d79b00;" vertex="1" parent="1">
          <mxGeometry x="520" y="600" width="240" height="40" as="geometry" />
        </mxCell>
        <mxCell id="49G-2B_-iHoOF8f0MI3W-13" value="0xff" style="rounded=0;whiteSpace=wrap;html=1;fillColor=#ffe6cc;strokeColor=#d79b00;" vertex="1" parent="1">
          <mxGeometry x="520" y="560" width="240" height="40" as="geometry" />
        </mxCell>
        <mxCell id="49G-2B_-iHoOF8f0MI3W-14" value="0xff" style="rounded=0;whiteSpace=wrap;html=1;fillColor=#ffe6cc;strokeColor=#d79b00;" vertex="1" parent="1">
          <mxGeometry x="520" y="520" width="240" height="40" as="geometry" />
        </mxCell>
        <mxCell id="49G-2B_-iHoOF8f0MI3W-15" value="0x7f" style="rounded=0;whiteSpace=wrap;html=1;fillColor=#ffe6cc;strokeColor=#d79b00;" vertex="1" parent="1">
          <mxGeometry x="520" y="480" width="240" height="40" as="geometry" />
        </mxCell>
        <mxCell id="49G-2B_-iHoOF8f0MI3W-16" value="0x00" style="rounded=0;whiteSpace=wrap;html=1;fillColor=#ffe6cc;strokeColor=#d79b00;" vertex="1" parent="1">
          <mxGeometry x="520" y="440" width="240" height="40" as="geometry" />
        </mxCell>
        <mxCell id="49G-2B_-iHoOF8f0MI3W-17" value="0x00" style="rounded=0;whiteSpace=wrap;html=1;fillColor=#ffe6cc;strokeColor=#d79b00;" vertex="1" parent="1">
          <mxGeometry x="520" y="400" width="240" height="40" as="geometry" />
        </mxCell>
        <mxCell id="49G-2B_-iHoOF8f0MI3W-18" value="0x28" style="rounded=0;whiteSpace=wrap;html=1;fillColor=#d5e8d4;strokeColor=#82b366;" vertex="1" parent="1">
          <mxGeometry x="520" y="360" width="240" height="40" as="geometry" />
        </mxCell>
        <mxCell id="49G-2B_-iHoOF8f0MI3W-19" value="0xdb" style="rounded=0;whiteSpace=wrap;html=1;fillColor=#d5e8d4;strokeColor=#82b366;" vertex="1" parent="1">
          <mxGeometry x="520" y="320" width="240" height="40" as="geometry" />
        </mxCell>
        <mxCell id="49G-2B_-iHoOF8f0MI3W-20" value="0xff" style="rounded=0;whiteSpace=wrap;html=1;fillColor=#d5e8d4;strokeColor=#82b366;" vertex="1" parent="1">
          <mxGeometry x="520" y="280" width="240" height="40" as="geometry" />
        </mxCell>
        <mxCell id="49G-2B_-iHoOF8f0MI3W-21" value="&lt;font color=&quot;#ffb570&quot;&gt;0x7fffffffdb27&lt;/font&gt;" style="text;html=1;strokeColor=none;fillColor=none;align=center;verticalAlign=middle;whiteSpace=wrap;rounded=0;" vertex="1" parent="1">
          <mxGeometry x="400" y="720" width="120" height="40" as="geometry" />
        </mxCell>
        <mxCell id="49G-2B_-iHoOF8f0MI3W-22" value="0xff" style="rounded=0;whiteSpace=wrap;html=1;fillColor=#d5e8d4;strokeColor=#82b366;" vertex="1" parent="1">
          <mxGeometry x="520" y="240" width="240" height="40" as="geometry" />
        </mxCell>
        <mxCell id="49G-2B_-iHoOF8f0MI3W-23" value="0x00" style="rounded=0;whiteSpace=wrap;html=1;fillColor=#d5e8d4;strokeColor=#82b366;" vertex="1" parent="1">
          <mxGeometry x="520" y="120" width="240" height="40" as="geometry" />
        </mxCell>
        <mxCell id="49G-2B_-iHoOF8f0MI3W-24" value="0x7f" style="rounded=0;whiteSpace=wrap;html=1;fillColor=#d5e8d4;strokeColor=#82b366;" vertex="1" parent="1">
          <mxGeometry x="520" y="160" width="240" height="40" as="geometry" />
        </mxCell>
        <mxCell id="49G-2B_-iHoOF8f0MI3W-25" value="0xff" style="rounded=0;whiteSpace=wrap;html=1;fillColor=#d5e8d4;strokeColor=#82b366;" vertex="1" parent="1">
          <mxGeometry x="520" y="200" width="240" height="40" as="geometry" />
        </mxCell>
        <mxCell id="49G-2B_-iHoOF8f0MI3W-26" value="0x00" style="rounded=0;whiteSpace=wrap;html=1;fillColor=#d5e8d4;strokeColor=#82b366;" vertex="1" parent="1">
          <mxGeometry x="520" y="80" width="240" height="40" as="geometry" />
        </mxCell>
        <mxCell id="49G-2B_-iHoOF8f0MI3W-27" value="..." style="rounded=0;whiteSpace=wrap;html=1;" vertex="1" parent="1">
          <mxGeometry x="520" y="760" width="240" height="40" as="geometry" />
        </mxCell>
        <mxCell id="49G-2B_-iHoOF8f0MI3W-28" value="..." style="rounded=0;whiteSpace=wrap;html=1;" vertex="1" parent="1">
          <mxGeometry x="520" y="40" width="240" height="40" as="geometry" />
        </mxCell>
        <mxCell id="49G-2B_-iHoOF8f0MI3W-29" value="&lt;font color=&quot;#67ab9f&quot;&gt;0x7fffffffdb28&lt;/font&gt;" style="text;html=1;strokeColor=none;fillColor=none;align=center;verticalAlign=middle;whiteSpace=wrap;rounded=0;" vertex="1" parent="1">
          <mxGeometry x="400" y="680" width="120" height="40" as="geometry" />
        </mxCell>
        <mxCell id="49G-2B_-iHoOF8f0MI3W-30" value="0x7fffffffdb29" style="text;html=1;strokeColor=none;fillColor=none;align=center;verticalAlign=middle;whiteSpace=wrap;rounded=0;" vertex="1" parent="1">
          <mxGeometry x="400" y="640" width="120" height="40" as="geometry" />
        </mxCell>
        <mxCell id="49G-2B_-iHoOF8f0MI3W-40" value="0x7fffffffdb2a" style="text;html=1;strokeColor=none;fillColor=none;align=center;verticalAlign=middle;whiteSpace=wrap;rounded=0;" vertex="1" parent="1">
          <mxGeometry x="400" y="600" width="120" height="40" as="geometry" />
        </mxCell>
        <mxCell id="49G-2B_-iHoOF8f0MI3W-41" value="0x7fffffffdb2b" style="text;html=1;strokeColor=none;fillColor=none;align=center;verticalAlign=middle;whiteSpace=wrap;rounded=0;" vertex="1" parent="1">
          <mxGeometry x="400" y="560" width="120" height="40" as="geometry" />
        </mxCell>
        <mxCell id="49G-2B_-iHoOF8f0MI3W-42" value="0x7fffffffdb2c" style="text;html=1;strokeColor=none;fillColor=none;align=center;verticalAlign=middle;whiteSpace=wrap;rounded=0;" vertex="1" parent="1">
          <mxGeometry x="400" y="520" width="120" height="40" as="geometry" />
        </mxCell>
        <mxCell id="49G-2B_-iHoOF8f0MI3W-43" value="0x7fffffffdb2d" style="text;html=1;strokeColor=none;fillColor=none;align=center;verticalAlign=middle;whiteSpace=wrap;rounded=0;" vertex="1" parent="1">
          <mxGeometry x="400" y="480" width="120" height="40" as="geometry" />
        </mxCell>
        <mxCell id="49G-2B_-iHoOF8f0MI3W-44" value="0x7fffffffdb2e" style="text;html=1;strokeColor=none;fillColor=none;align=center;verticalAlign=middle;whiteSpace=wrap;rounded=0;" vertex="1" parent="1">
          <mxGeometry x="400" y="440" width="120" height="40" as="geometry" />
        </mxCell>
        <mxCell id="49G-2B_-iHoOF8f0MI3W-45" value="0x7fffffffdb2f" style="text;html=1;strokeColor=none;fillColor=none;align=center;verticalAlign=middle;whiteSpace=wrap;rounded=0;" vertex="1" parent="1">
          <mxGeometry x="400" y="400" width="120" height="40" as="geometry" />
        </mxCell>
        <mxCell id="49G-2B_-iHoOF8f0MI3W-46" value="0x7fffffffdb30" style="text;html=1;strokeColor=none;fillColor=none;align=center;verticalAlign=middle;whiteSpace=wrap;rounded=0;" vertex="1" parent="1">
          <mxGeometry x="400" y="360" width="120" height="40" as="geometry" />
        </mxCell>
        <mxCell id="49G-2B_-iHoOF8f0MI3W-47" value="0x7fffffffdb31" style="text;html=1;strokeColor=none;fillColor=none;align=center;verticalAlign=middle;whiteSpace=wrap;rounded=0;" vertex="1" parent="1">
          <mxGeometry x="400" y="320" width="120" height="40" as="geometry" />
        </mxCell>
        <mxCell id="49G-2B_-iHoOF8f0MI3W-48" value="0x7fffffffdb32" style="text;html=1;strokeColor=none;fillColor=none;align=center;verticalAlign=middle;whiteSpace=wrap;rounded=0;" vertex="1" parent="1">
          <mxGeometry x="400" y="280" width="120" height="40" as="geometry" />
        </mxCell>
        <mxCell id="49G-2B_-iHoOF8f0MI3W-49" value="0x7fffffffdb33" style="text;html=1;strokeColor=none;fillColor=none;align=center;verticalAlign=middle;whiteSpace=wrap;rounded=0;" vertex="1" parent="1">
          <mxGeometry x="400" y="240" width="120" height="40" as="geometry" />
        </mxCell>
        <mxCell id="49G-2B_-iHoOF8f0MI3W-50" value="0x7fffffffdb34" style="text;html=1;strokeColor=none;fillColor=none;align=center;verticalAlign=middle;whiteSpace=wrap;rounded=0;" vertex="1" parent="1">
          <mxGeometry x="400" y="200" width="120" height="40" as="geometry" />
        </mxCell>
        <mxCell id="49G-2B_-iHoOF8f0MI3W-51" value="0x7fffffffdb35" style="text;html=1;strokeColor=none;fillColor=none;align=center;verticalAlign=middle;whiteSpace=wrap;rounded=0;" vertex="1" parent="1">
          <mxGeometry x="400" y="160" width="120" height="40" as="geometry" />
        </mxCell>
        <mxCell id="49G-2B_-iHoOF8f0MI3W-52" value="0x7fffffffdb37" style="text;html=1;strokeColor=none;fillColor=none;align=center;verticalAlign=middle;whiteSpace=wrap;rounded=0;" vertex="1" parent="1">
          <mxGeometry x="400" y="80" width="120" height="40" as="geometry" />
        </mxCell>
        <mxCell id="49G-2B_-iHoOF8f0MI3W-53" value="0x7fffffffdb36" style="text;html=1;strokeColor=none;fillColor=none;align=center;verticalAlign=middle;whiteSpace=wrap;rounded=0;" vertex="1" parent="1">
          <mxGeometry x="400" y="120" width="120" height="40" as="geometry" />
        </mxCell>
        <mxCell id="49G-2B_-iHoOF8f0MI3W-54" value="&lt;font style=&quot;font-size: 18px&quot;&gt;char a = &#39;g&#39;;&lt;br&gt;char *b = &amp;amp;a;&lt;br&gt;char **c = &amp;amp;b;&lt;/font&gt;" style="text;html=1;strokeColor=none;fillColor=none;align=center;verticalAlign=middle;whiteSpace=wrap;rounded=0;" vertex="1" parent="1">
          <mxGeometry x="40" y="360" width="160" height="80" as="geometry" />
        </mxCell>
        <mxCell id="49G-2B_-iHoOF8f0MI3W-56" value="" style="endArrow=classic;html=1;" edge="1" parent="1">
          <mxGeometry width="50" height="50" relative="1" as="geometry">
            <mxPoint x="400" y="780" as="sourcePoint" />
            <mxPoint x="480" y="780" as="targetPoint" />
          </mxGeometry>
        </mxCell>
        <mxCell id="49G-2B_-iHoOF8f0MI3W-57" value="rsp" style="rounded=1;whiteSpace=wrap;html=1;fillColor=#e3c800;strokeColor=#B09500;fontColor=#000000;" vertex="1" parent="1">
          <mxGeometry x="320" y="760" width="80" height="40" as="geometry" />
        </mxCell>
        <mxCell id="49G-2B_-iHoOF8f0MI3W-58" value="" style="endArrow=classic;html=1;" edge="1" parent="1">
          <mxGeometry width="50" height="50" relative="1" as="geometry">
            <mxPoint x="400" y="60" as="sourcePoint" />
            <mxPoint x="480" y="60" as="targetPoint" />
          </mxGeometry>
        </mxCell>
        <mxCell id="49G-2B_-iHoOF8f0MI3W-59" value="rsp" style="rounded=1;whiteSpace=wrap;html=1;fillColor=#f0a30a;strokeColor=#BD7000;fontColor=#000000;" vertex="1" parent="1">
          <mxGeometry x="320" y="40" width="80" height="40" as="geometry" />
        </mxCell>
        <mxCell id="49G-2B_-iHoOF8f0MI3W-61" value="" style="shape=flexArrow;endArrow=classic;html=1;startArrow=none;" edge="1" parent="1" source="49G-2B_-iHoOF8f0MI3W-64">
          <mxGeometry width="50" height="50" relative="1" as="geometry">
            <mxPoint x="360" y="740" as="sourcePoint" />
            <mxPoint x="360" y="97" as="targetPoint" />
          </mxGeometry>
        </mxCell>
        <mxCell id="49G-2B_-iHoOF8f0MI3W-62" value="&lt;font style=&quot;font-size: 17px&quot;&gt;栈底&lt;/font&gt;" style="text;html=1;strokeColor=none;fillColor=none;align=center;verticalAlign=middle;whiteSpace=wrap;rounded=0;" vertex="1" parent="1">
          <mxGeometry x="240" y="720" width="80" height="40" as="geometry" />
        </mxCell>
        <mxCell id="49G-2B_-iHoOF8f0MI3W-63" value="&lt;font style=&quot;font-size: 18px&quot;&gt;栈顶&lt;/font&gt;" style="text;html=1;strokeColor=none;fillColor=none;align=center;verticalAlign=middle;whiteSpace=wrap;rounded=0;" vertex="1" parent="1">
          <mxGeometry x="240" y="80" width="80" height="40" as="geometry" />
        </mxCell>
        <mxCell id="49G-2B_-iHoOF8f0MI3W-64" value="&lt;font style=&quot;font-size: 17px&quot;&gt;地址&lt;br&gt;向上增长&lt;/font&gt;" style="text;html=1;strokeColor=none;fillColor=none;align=center;verticalAlign=middle;whiteSpace=wrap;rounded=0;" vertex="1" parent="1">
          <mxGeometry x="320" y="400" width="80" height="40" as="geometry" />
        </mxCell>
        <mxCell id="49G-2B_-iHoOF8f0MI3W-65" value="" style="shape=flexArrow;endArrow=none;html=1;" edge="1" parent="1" target="49G-2B_-iHoOF8f0MI3W-64">
          <mxGeometry width="50" height="50" relative="1" as="geometry">
            <mxPoint x="360" y="740" as="sourcePoint" />
            <mxPoint x="360" y="97" as="targetPoint" />
          </mxGeometry>
        </mxCell>
      </root>
    </mxGraphModel>
  </diagram>
</mxfile>
